<?xml version="1.0" standalone="no"?><!DOCTYPE svg PUBLIC "-//W3C//DTD SVG 1.1//EN" "http://www.w3.org/Graphics/SVG/1.1/DTD/svg11.dtd"><svg t="1539258709913" class="icon" style="" viewBox="0 0 1024 1024" version="1.1" xmlns="http://www.w3.org/2000/svg" p-id="1942" xmlns:xlink="http://www.w3.org/1999/xlink" width="48" height="48"><defs><style type="text/css"></style></defs><path d="M211.2 985.6c-57.6 0-96-44.8-96-115.2v-710.4c0-70.4 38.4-115.2 96-115.2 25.6 0 44.8 6.4 70.4 19.2l563.2 358.4c38.4 25.6 64 57.6 64 96s-25.6 70.4-64 96l-556.8 358.4c-25.6 6.4-51.2 12.8-76.8 12.8z m0-889.6c-38.4 0-38.4 44.8-38.4 57.6v710.4c0 19.2 6.4 57.6 38.4 57.6 12.8 0 25.6-6.4 38.4-12.8l556.8-358.4c25.6-12.8 38.4-32 38.4-44.8 0-19.2-12.8-32-38.4-44.8l-563.2-358.4s-19.2-6.4-32-6.4z" fill="#ffffff" p-id="1943"></path><path d="M499.2 697.6c-6.4 0-6.4 0-12.8-6.4s0-12.8 6.4-19.2l6.4-6.4c6.4-6.4 12.8 0 19.2 6.4 6.4 6.4 0 12.8-6.4 19.2l-6.4 6.4h-6.4zM288 832c-6.4 0-6.4 0-12.8-6.4s0-12.8 6.4-19.2l160-102.4c6.4-6.4 12.8 0 19.2 6.4 6.4 6.4 0 12.8-6.4 19.2l-160 102.4h-6.4z" fill="#ffffff" p-id="1944"></path></svg>