<?xml version="1.0" standalone="no"?><!DOCTYPE svg PUBLIC "-//W3C//DTD SVG 1.1//EN" "http://www.w3.org/Graphics/SVG/1.1/DTD/svg11.dtd"><svg t="1539695825204" class="icon" style="" viewBox="0 0 1024 1024" version="1.1" xmlns="http://www.w3.org/2000/svg" p-id="1952" xmlns:xlink="http://www.w3.org/1999/xlink" width="32" height="32"><defs><style type="text/css"></style></defs><path d="M509.630023 65.09967c-247.252267 0-447.687252 200.436008-447.687252 447.688275 0 247.25329 200.441125 447.695438 447.687252 447.695438 247.254314 0 447.695438-200.441125 447.695438-447.695438C957.326485 265.535679 756.88536 65.09967 509.630023 65.09967L509.630023 65.09967 509.630023 65.09967zM584.969918 214.235292l-21.576411 422.928359L455.499172 637.163651l-21.578458-422.928359L584.969918 214.235292 584.969918 214.235292 584.969918 214.235292zM506.842537 838.145082c-47.270607 0-75.011414-34.102702-75.011414-75.030857 0-43.855834 31.851429-76.012208 76.038814-76.012208 45.210691 0 75.005274 32.156374 75.005274 76.012208C582.872141 805.988708 553.078581 838.145082 506.842537 838.145082L506.842537 838.145082 506.842537 838.145082z" p-id="1953" fill="#f37938"></path><path d="M506.482333 909.847124 506.482333 909.847124z" p-id="1954" fill="#f37938"></path></svg>